<svg id="Layer_1" data-name="Layer 1" xmlns="http://www.w3.org/2000/svg" viewBox="0 0 1082.43 1076"><defs><style>.cls-1{fill:#fcb51f;}</style></defs><path class="cls-1" d="M401.1,1078c-219,0-397.81-169.65-397.81-392.32V297.9H221.41V824.43c0,24.23,13.41,37.86,37.25,37.86H543.53c23.84,0,37.25-13.63,37.25-37.86V297.9H798.91V685.68C798.91,908.35,620.12,1078,401.1,1078" transform="translate(-3.29 -2)"/><path class="cls-1" d="M687.9,2c219,0,397.81,169.65,397.81,392.32V782.11H867.59V255.57c0-24.23-13.41-37.86-37.25-37.86H545.47c-23.84,0-37.25,13.63-37.25,37.86V782.11H290.09V394.32C290.09,171.65,468.88,2,687.9,2" transform="translate(-3.29 -2)"/></svg>